<svg xmlns="http://www.w3.org/2000/svg" width="1280" height="1280" font-family="-apple-system, BlinkMacSystemFont, 'Segoe UI', Roboto, Helvetica, Arial, sans-serif" viewBox="0 0 1280 1280"><defs><linearGradient id="bg" x1="0" x2="1" y1="0" y2="1"><stop offset="0" stop-color="#11173a"/><stop offset=".55" stop-color="#0B1020"/><stop offset="1" stop-color="#0B1020"/></linearGradient><linearGradient id="mcp" x1="0" x2="1" y1="0" y2="1"><stop offset="0" stop-color="#7C5CFF"/><stop offset="1" stop-color="#5B3DF5"/></linearGradient><radialGradient id="glow" cx=".82" cy=".3" r=".6"><stop offset="0" stop-color="#7C5CFF" stop-opacity=".2"/><stop offset="1" stop-color="#7C5CFF" stop-opacity="0"/></radialGradient></defs><rect width="1280" height="1280" x="0" y="0" fill="url(#bg)"/><rect width="1280" height="1280" x="0" y="0" fill="url(#glow)"/><g><g transform="translate(0,320) translate(80,70)"><rect width="300" height="42" x="0" y="0" fill="#1A2148" stroke="#2E376E" stroke-width="1.5" rx="21"/><circle cx="27" cy="21" r="7" fill="#7C5CFF"/><text x="48" y="27" fill="#C9CEF0" font-size="16" font-weight="600" letter-spacing=".5">Model Context Protocol server</text></g><text x="80" y="214" fill="#FFF" font-size="80" font-weight="800" letter-spacing="-1.5" transform="translate(0,320)">health-export-mcp</text><text x="82" y="276" fill="#A9B0E0" font-size="34" font-weight="500" transform="translate(0,320)">Apple Health <tspan fill="#7C5CFF" font-weight="700">→</tspan> your AI agent, over MCP</text><text x="82" y="330" fill="#7C7FA6" font-size="23" transform="translate(0,320)">190 Apple Health metrics as clean JSON — read-only, local-first.</text><g font-size="20" font-weight="700"><g transform="translate(0,320) translate(80,372)"><rect width="172" height="48" fill="#161D3F" stroke="#2A3160" stroke-width="1.5" rx="12"/><text x="86" y="31" fill="#EDEFFA" text-anchor="middle">190 metrics</text></g><g transform="translate(0,320) translate(268,372)"><rect width="162" height="48" fill="#161D3F" stroke="#2A3160" stroke-width="1.5" rx="12"/><text x="81" y="31" fill="#EDEFFA" text-anchor="middle">7 MCP tools</text></g><g transform="translate(0,320) translate(446,372)"><rect width="224" height="48" fill="#161D3F" stroke="#2A3160" stroke-width="1.5" rx="12"/><text x="112" y="31" fill="#EDEFFA" text-anchor="middle">zero-dependency</text></g><g transform="translate(0,320) translate(686,372)"><rect width="156" height="48" fill="#161D3F" stroke="#2A3160" stroke-width="1.5" rx="12"/><text x="78" y="31" fill="#EDEFFA" text-anchor="middle">read-only</text></g></g><text x="82" y="476" fill="#6B7099" font-size="18" font-weight="600" letter-spacing="1" transform="translate(0,320)">WORKS WITH</text><text x="82" y="510" fill="#C9CEF0" font-size="24" font-weight="600" transform="translate(0,320)">Claude · Cursor · ChatGPT · opencode · OpenClaw · Hermes</text><text x="82" y="572" fill="#5A6090" font-size="20" font-weight="600" transform="translate(0,320)">github.com/PhilipAD/health-export-mcp</text><g transform="translate(0,320) translate(1000,150)"><rect width="170" height="120" x="0" y="0" fill="url(#mcp)" rx="22"/><text x="85" y="54" fill="#fff" font-size="24" font-weight="800" text-anchor="middle">MCP</text><text x="85" y="84" fill="#E6E1FF" font-size="15" text-anchor="middle">7 tools · stdio</text></g></g></svg>